<svg width="37" height="37" viewBox="0 0 37 37" fill="none" xmlns="http://www.w3.org/2000/svg">
<path fill-rule="evenodd" clip-rule="evenodd" d="M30.5952 8.62476C30.5952 9.85096 29.6012 10.8448 28.3752 10.8448C27.1493 10.8448 26.1552 9.85096 26.1552 8.62476C26.1552 7.39855 27.1493 6.40476 28.3752 6.40476C29.6014 6.40476 30.5952 7.39855 30.5952 8.62476ZM18.5 24.6666C15.0943 24.6666 12.3334 21.9057 12.3334 18.5C12.3334 15.0943 15.0943 12.3334 18.5 12.3334C21.9057 12.3334 24.6666 15.0943 24.6666 18.5C24.6666 21.9057 21.9057 24.6666 18.5 24.6666ZM18.5 8.99996C13.2532 8.99996 8.99996 13.2532 8.99996 18.5C8.99996 23.7468 13.2532 28 18.5 28C23.7468 28 28 23.7468 28 18.5C28 13.2532 23.7468 8.99996 18.5 8.99996ZM18.5 3.33347C23.4398 3.33347 24.0249 3.35226 25.9754 3.44129C27.7792 3.52367 28.7588 3.82488 29.4107 4.07838C30.2741 4.41398 30.8904 4.81491 31.5379 5.46241C32.1854 6.10962 32.5863 6.72591 32.9219 7.58963C33.1751 8.24146 33.4766 9.22109 33.559 11.0248C33.648 12.9757 33.6668 13.5608 33.6668 18.5006C33.6668 23.4404 33.648 24.0254 33.559 25.976C33.4766 27.7798 33.1754 28.7594 32.9219 29.4112C32.5863 30.2747 32.1854 30.891 31.5379 31.5385C30.8907 32.186 30.2744 32.5869 29.4107 32.9225C28.7588 33.1757 27.7792 33.4772 25.9754 33.5596C24.0249 33.6486 23.4398 33.6674 18.5 33.6674C13.5599 33.6674 12.9749 33.6486 11.0243 33.5596C9.22052 33.4772 8.24088 33.176 7.58905 32.9225C6.72562 32.5869 6.10934 32.186 5.46184 31.5385C4.81463 30.8912 4.41341 30.275 4.0778 29.4112C3.82459 28.7594 3.52309 27.7798 3.44071 25.976C3.35168 24.0251 3.33289 23.4401 3.33289 18.5006C3.33289 13.5608 3.35168 12.9757 3.44071 11.0248C3.52309 9.22109 3.8243 8.24146 4.0778 7.58963C4.41341 6.7262 4.81434 6.10991 5.46184 5.46241C6.10905 4.81491 6.72533 4.41398 7.58905 4.07838C8.24088 3.82516 9.22052 3.52367 11.0243 3.44129C12.9751 3.35226 13.5602 3.33347 18.5 3.33347ZM18.5 0C13.4758 0 12.8456 0.0213906 10.8725 0.111289C8.90341 0.201187 7.55841 0.513953 6.38192 0.97125C5.16526 1.44387 4.13359 2.07662 3.10511 3.10511C2.07662 4.13359 1.44387 5.16526 0.97125 6.38192C0.513953 7.5587 0.201187 8.90341 0.111289 10.8725C0.0213906 12.8456 0 13.4758 0 18.5C0 23.5242 0.0213906 24.1544 0.111289 26.1275C0.201187 28.0966 0.513953 29.4413 0.97125 30.6181C1.44387 31.8347 2.07662 32.8664 3.10511 33.8949C4.13359 34.9234 5.16526 35.5558 6.38192 36.0288C7.5587 36.486 8.90341 36.7988 10.8725 36.8887C12.8456 36.9786 13.4758 37 18.5 37C23.5242 37 24.1544 36.9786 26.1275 36.8887C28.0966 36.7988 29.4413 36.486 30.6181 36.0288C31.8347 35.5558 32.8664 34.9234 33.8949 33.8949C34.9234 32.8664 35.5558 31.8347 36.0288 30.6181C36.486 29.4413 36.7988 28.0966 36.8887 26.1275C36.9786 24.1544 37 23.5242 37 18.5C37 13.4758 36.9786 12.8456 36.8887 10.8725C36.7988 8.90341 36.486 7.5587 36.0288 6.38192C35.5558 5.16526 34.9234 4.13359 33.8949 3.10511C32.8664 2.07662 31.8347 1.44416 30.6181 0.97125C29.4413 0.513953 28.0966 0.201187 26.1275 0.111289C24.1544 0.0213906 23.5242 0 18.5 0Z" fill="url(#paint0_radial)"/>
<defs>
<radialGradient id="paint0_radial" cx="0" cy="0" r="1" gradientUnits="userSpaceOnUse" gradientTransform="translate(5.5243 37.1285) scale(47.2767)">
<stop stop-color="#FFB140"/>
<stop offset="0.2559" stop-color="#FF5445"/>
<stop offset="0.599" stop-color="#FC2B82"/>
<stop offset="1" stop-color="#8E40B7"/>
</radialGradient>
</defs>
</svg>
