<svg width="254" height="82" viewBox="0 0 254 82" fill="none" xmlns="http://www.w3.org/2000/svg">
<path d="M21.17 66.2466L8.92038 72.8992L5.94707 69.4023L13.7805 66.4632L10.016 63.6286C8.83214 64.2585 7.15303 65.1047 4.96347 66.1809C4.31277 66.4957 3.48427 66.8959 2.48592 67.3947L0 64.1339C0.917867 63.819 1.67217 63.5692 2.26356 63.3858C4.09822 62.7559 5.68118 62.1262 7.01213 61.4959C5.76942 60.5776 5.02977 59.9478 4.79322 59.6066C4.29007 58.898 4.03892 58.0974 4.03892 57.2052C4.03892 55.7554 4.67487 54.5742 5.94707 53.6558C7.21984 52.7369 8.72859 52.2779 10.4738 52.2779C12.3385 52.2779 13.8919 52.7042 15.1341 53.5568C16.3768 54.4101 16.9982 55.532 16.9982 56.923C16.9982 58.3401 16.5251 59.5608 15.5778 60.5843C14.8681 61.345 13.9655 61.936 12.8704 62.3554L16.9982 65.19L21.17 63.5367V66.2466ZM11.2281 57.3561C11.2281 56.8052 11.0658 56.3915 10.7409 56.116C10.4156 55.8406 10.0012 55.7029 9.49764 55.7029C9.05394 55.7029 8.64755 55.8406 8.27749 56.116C7.90744 56.3915 7.72243 56.7526 7.72243 57.1984C7.72243 57.8024 7.91484 58.3401 8.29964 58.8128C8.68429 59.2848 9.2022 59.6654 9.85295 59.9541C10.4156 59.5866 10.785 59.1998 10.9622 58.7928C11.1399 58.386 11.2281 57.907 11.2281 57.3561ZM30.1787 56.1354H27.605V72.906H20.7705V56.1354H19.0394V53.6164H30.1787V56.1354ZM40.8749 56.1354H38.3012V72.906H31.4667V56.1354H29.7356V53.6164H31.5992C31.5992 51.9368 31.2296 50.5979 30.49 49.6006C29.7504 48.6033 28.7883 48.105 27.605 48.105C26.8359 48.105 26.2293 48.3215 25.7856 48.7542C25.3413 49.1874 25.12 49.6794 25.12 50.2308C25.12 50.7029 25.2751 51.1687 25.5859 51.6282C25.8965 52.0877 26.274 52.422 26.7176 52.6323H21.8355C20.3563 51.8447 19.6166 50.7555 19.6166 49.3646C19.6166 48.1834 20.1864 47.193 21.3251 46.3923C22.4642 45.5917 23.8921 45.1917 25.6084 45.1917C28.6259 45.1917 31.4074 46.0975 33.9516 47.9079C36.4966 49.7189 37.7682 51.6218 37.7682 53.6164H40.8749V56.1354ZM66.0572 56.1354H48.9259V53.6164H66.0572V56.1354ZM67.7882 61.017H60.6425C61.5005 61.4438 62.1366 61.824 62.5508 62.1719C63.823 63.2281 64.4591 64.5275 64.4591 66.0694C64.4591 68.5296 63.6158 70.3207 61.93 71.4362C60.4501 72.414 58.2012 72.906 55.1837 72.906C53.9111 72.906 52.7278 72.7484 51.6332 72.427C51.2779 72.322 50.8342 72.1516 50.3017 71.9151V68.1428C50.5977 68.6216 50.849 68.969 51.0566 69.1856C51.7663 69.8812 52.5948 70.2293 53.5415 70.2293C54.6654 70.2293 55.5606 69.796 56.2266 68.9234C56.8922 68.0571 57.2256 67.0141 57.2256 65.8003C57.2256 64.4812 56.8555 63.392 56.1158 62.5194C55.2578 61.5158 54.074 61.017 52.5653 61.017C52.3876 61.017 52.2252 61.017 52.0769 61.017C51.8404 61.017 51.6627 61.017 51.5444 61.017V58.5762H67.7882V61.017ZM76.7522 56.1354H74.1785V72.906H67.344V56.1354H65.6129V53.6164H76.7522V56.1354ZM87.4485 56.1354H84.8746V72.906H78.0402V56.1354H76.3091V53.6164H78.1727C78.1727 51.9368 77.8031 50.5979 77.0636 49.6006C76.3239 48.6033 75.3619 48.105 74.1785 48.105C73.4094 48.105 72.8028 48.3215 72.3592 48.7542C71.9155 49.1874 71.6936 49.6794 71.6936 50.2308C71.6936 50.7029 71.8486 51.1687 72.1593 51.6282C72.4699 52.0877 72.8474 52.422 73.2911 52.6323H68.409C66.9298 51.8447 66.1901 50.7555 66.1901 49.3646C66.1901 48.1834 66.76 47.193 67.8986 46.3923C69.0377 45.5917 70.4656 45.1917 72.1819 45.1917C75.1994 45.1917 77.9809 46.0975 80.5251 47.9079C83.0699 49.7189 84.3418 51.6218 84.3418 53.6164H87.4485V56.1354ZM110.944 56.1354H105.574C106.313 56.5817 106.861 56.9886 107.216 57.3561C108.34 58.511 108.903 59.8626 108.903 61.4107C108.903 63.9042 108.03 65.6888 106.284 66.765C104.894 67.6308 102.866 68.0639 100.204 68.0639C99.2865 68.0639 98.3844 67.9587 97.4966 67.749C97.2011 67.6965 96.8311 67.5781 96.3874 67.3947V64.2847C96.594 64.4944 96.7716 64.6391 96.9193 64.7179C97.393 65.0327 97.8814 65.19 98.3844 65.19C99.3013 65.19 100.041 64.875 100.603 64.2453C101.284 63.484 101.624 62.3034 101.624 60.7021C101.624 59.2848 101.239 58.1042 100.47 57.1589C100.233 56.8441 99.849 56.5029 99.316 56.1354H95.4994V53.6164H110.944V56.1354ZM121.639 56.1354H119.066V72.906H112.231V56.1354H110.5V53.6164H121.639V56.1354ZM120.175 80.5038C119.938 80.661 119.717 80.7924 119.509 80.8976C118.238 81.5273 116.64 81.8422 114.717 81.8422C112.734 81.8422 111.018 81.4353 109.569 80.6221C107.911 79.7032 107.082 78.4699 107.082 76.9212C107.082 75.5303 107.793 74.4805 109.213 73.7719C110.397 73.1683 111.92 72.8665 113.785 72.8665H119.066V74.8742H115.516C114.776 74.8742 114.147 75.0383 113.629 75.3662C113.111 75.6943 112.852 76.1468 112.852 76.7247C112.852 77.4596 113.155 78.0368 113.762 78.4568C114.369 78.8769 115.101 79.0865 115.959 79.0865C117.084 79.0865 118.119 78.8769 119.066 78.4568C119.362 78.3254 119.732 78.1025 120.175 77.7875V80.5038ZM144.052 56.1354H138.993V60.7021C138.371 60.545 137.869 60.4398 137.484 60.3872C136.182 60.1512 135.147 60.0329 134.377 60.0329C133.608 60.0329 132.986 60.1313 132.513 60.3283C132.04 60.5249 131.803 60.8598 131.803 61.3319C131.803 61.8833 132.128 62.2508 132.78 62.4342C133.431 62.6182 134.259 62.7098 135.265 62.7098C136.922 62.7098 138.268 63.012 139.304 63.6155C140.576 64.3766 141.212 65.5311 141.212 67.0798C141.212 67.6308 141.049 68.1559 140.723 68.6543C140.635 68.812 140.457 69.0217 140.192 69.284L134.954 68.8513C135.132 68.6411 135.25 68.4707 135.309 68.3393C135.576 67.8667 135.708 67.4342 135.708 67.0404C135.708 66.358 135.479 65.8265 135.02 65.446C134.562 65.0654 134.023 64.875 133.401 64.875C132.602 64.875 131.892 65.1505 131.271 65.7083C130.649 66.2598 130.338 67.0404 130.338 68.044C130.338 69.2319 130.849 70.2092 131.87 70.9899C132.891 71.771 134.259 72.1579 135.974 72.1579C137.395 72.1579 138.801 71.8494 140.192 71.2327C140.635 71.0424 141.197 70.7213 141.877 70.2686L141.212 73.49C140.502 73.6998 139.91 73.8575 139.437 73.9621C137.927 74.2839 136.419 74.4411 134.91 74.4411C131.537 74.4411 128.77 73.9295 126.611 72.8992C124.185 71.7448 122.971 70.0846 122.971 67.9194C122.971 66.2923 123.682 65.0522 125.102 64.2058C125.575 63.9435 126.3 63.6812 127.276 63.4184C126.418 63.2874 125.782 63.1429 125.368 62.9856C124.096 62.4868 123.46 61.6993 123.46 60.6233C123.46 59.6523 123.948 58.9173 124.924 58.419C125.9 57.9202 127.143 57.6711 128.652 57.6711C129.362 57.6711 130.28 57.7367 131.404 57.8676C131.788 57.8938 132.321 57.9727 133.002 58.1042V56.1354H121.374V53.6164H144.052V56.1354ZM140.635 54.6793C140.665 54.8364 140.561 54.9417 140.324 54.9942C140.147 55.0205 140.029 54.9417 139.97 54.7576C139.91 54.5742 139.999 54.4558 140.236 54.4033C140.443 54.3513 140.576 54.4427 140.635 54.6793ZM170.433 56.1354H165.195C165.61 56.372 165.92 56.5817 166.128 56.7657C166.779 57.3693 167.104 58.0385 167.104 58.7734C167.104 60.0328 166.29 60.9124 164.663 61.4107C164.13 61.5685 163.302 61.6863 162.178 61.7651C163.45 62.0011 164.397 62.2771 165.018 62.592C166.942 63.5629 167.903 65.059 167.903 67.0798C167.903 69.1531 166.927 70.7406 164.974 71.843C163.317 72.7877 161.245 73.2603 158.761 73.2603C157.133 73.2603 155.639 73.0895 154.278 72.7484C153.834 72.6438 153.287 72.4597 152.636 72.1973V68.812C152.754 69.0217 152.873 69.1794 152.99 69.284C153.701 69.9926 154.826 70.3469 156.364 70.3469C157.399 70.3469 158.331 70.0321 159.16 69.4023C160.136 68.6673 160.625 67.6701 160.625 66.4107C160.625 65.4396 160.432 64.6653 160.047 64.0876C159.574 63.3789 158.893 63.0252 158.006 63.0252C157.296 63.0252 156.645 63.1298 156.053 63.3401C155.965 63.3663 155.861 63.4184 155.742 63.4972V60.269C156.009 60.3741 156.216 60.453 156.364 60.5055C156.866 60.6627 157.37 60.7416 157.873 60.7416C158.613 60.7416 159.197 60.4923 159.626 59.9935C160.055 59.4952 160.27 58.9173 160.27 58.2613C160.27 57.1852 159.811 56.4767 158.893 56.1354H151.571V53.6164H170.433V56.1354ZM199.99 56.1354H197.417V72.906H190.582V69.8355C189.931 70.2223 188.91 70.6097 187.512 70.9899C185.737 71.4825 184.058 71.7248 182.482 71.7248C179.819 71.7248 177.608 71.4887 175.854 71.0231C173.036 70.2618 171.631 68.9822 171.631 67.1781C171.631 65.8985 172.326 64.9213 173.717 64.2453C174.161 64.0355 174.856 63.8253 175.803 63.6155C175.034 63.5367 174.457 63.4184 174.072 63.2612C172.918 62.7887 172.341 61.9753 172.341 60.8204C172.341 60.0067 172.8 59.3506 173.717 58.8523C174.634 58.3533 175.788 58.1042 177.179 58.1042C177.829 58.1042 178.569 58.183 179.398 58.3401C179.664 58.3928 180.019 58.4717 180.463 58.5762V56.1354H169.989V53.6164H199.99V56.1354ZM190.582 66.614V56.1354H186.499V60.7809C186.055 60.6758 185.7 60.5975 185.433 60.545C184.576 60.3871 183.762 60.3083 182.993 60.3083C181.868 60.3083 181.032 60.4335 180.485 60.6827C179.938 60.9318 179.664 61.2272 179.664 61.5685C179.664 61.9359 179.812 62.1915 180.108 62.336C180.404 62.4805 180.788 62.5525 181.262 62.5525C181.676 62.5525 182.001 62.5326 182.238 62.4937C182.475 62.4543 182.667 62.408 182.815 62.3554V65.0722C182.667 65.0197 182.549 64.9934 182.46 64.9934C181.876 64.8619 181.425 64.7962 181.099 64.7962C180.278 64.7962 179.634 64.9734 179.168 65.3213C178.703 65.6757 178.465 66.0957 178.465 66.5877C178.465 67.2438 178.843 67.8147 179.597 68.3068C180.352 68.7988 181.439 69.0479 182.859 69.0479C184.664 69.0479 186.351 68.7331 187.919 68.1033C188.984 67.6897 189.871 67.1912 190.582 66.614ZM210.686 56.1354H208.112V72.906H201.278V56.1354H199.547V53.6164H210.686V56.1354ZM208.245 53.813H202.21C201.558 53.2026 200.908 51.7528 200.257 49.4566C199.754 47.6651 198.896 46.7667 197.682 46.7667C197.328 46.7667 197.047 46.8186 196.839 46.9238C196.78 46.9501 196.706 47.0158 196.617 47.121L196.263 44.9163C196.44 44.7847 196.588 44.6933 196.706 44.6406C197.121 44.4568 197.579 44.3652 198.082 44.3652C198.26 44.3652 198.526 44.3652 198.881 44.3652C201.426 44.3652 203.467 45.5853 205.005 48.0261C206.1 49.968 207.18 51.8972 208.245 53.813ZM225.865 56.1354H220.495C221.234 56.5817 221.782 56.9886 222.137 57.3561C223.261 58.511 223.824 59.8626 223.824 61.4107C223.824 63.9042 222.95 65.6888 221.205 66.765C219.814 67.6308 217.788 68.0639 215.125 68.0639C214.207 68.0639 213.306 67.9587 212.418 67.749C212.122 67.6965 211.752 67.5781 211.308 67.3947V64.2847C211.515 64.4944 211.693 64.6391 211.84 64.7179C212.314 65.0327 212.802 65.19 213.306 65.19C214.222 65.19 214.962 64.875 215.524 64.2453C216.205 63.484 216.545 62.3034 216.545 60.7021C216.545 59.2848 216.16 58.1042 215.391 57.1589C215.154 56.8441 214.77 56.5029 214.237 56.1354H210.421V53.6164H225.865V56.1354ZM236.56 56.1354H233.986V72.906H227.152V56.1354H225.421V53.6164H236.56V56.1354Z" fill="#281671"/>
<path d="M240.541 47.796V43.1078H238.79V42.4848H242.996V43.1078H241.245V47.796H240.541ZM243.706 47.796V42.4848H244.76L246.016 46.2441C246.132 46.5942 246.216 46.8565 246.269 47.0305C246.33 46.8376 246.425 46.5531 246.554 46.1789L247.832 42.4848H248.773V47.796H248.098V43.3528L246.548 47.796H245.915L244.381 43.2708V47.796H243.706Z" fill="#1F1A17" stroke="#1F1A17" stroke-width="0.288" stroke-miterlimit="2.61313"/>
<path d="M243.995 37.1355C248.416 37.1355 252 40.7196 252 45.1406C252 49.5616 248.416 53.1459 243.995 53.1459C239.574 53.1459 235.99 49.5616 235.99 45.1406C235.99 40.7196 239.574 37.1355 243.995 37.1355Z" stroke="#1F1A17" stroke-width="3.99987" stroke-miterlimit="2.61313"/>
<path fill-rule="evenodd" clip-rule="evenodd" d="M127.476 9.99332L127.43 35.1589C127.423 38.9405 124.332 42.0389 120.55 42.0389H116.011C112.229 42.0389 109.131 38.9436 109.131 35.1589V9.99444L104.501 9.99341V35.3485C104.501 41.0471 109.164 45.7095 114.862 45.7095H121.698C127.396 45.7095 132.059 41.0465 132.059 35.3485V9.99341H127.476V9.99332Z" fill="#E77812"/>
<path fill-rule="evenodd" clip-rule="evenodd" d="M118.257 7.62939e-06C119 1.47574 121.765 8.10339 118.257 8.10339C115.217 8.10339 116.949 2.21702 118.257 7.62939e-06Z" fill="#E77812"/>
<path fill-rule="evenodd" clip-rule="evenodd" d="M121.749 9.27143C122.256 9.27143 122.764 9.27143 123.271 9.27143C123.271 10.73 123.271 12.6469 123.271 14.1056C122.89 14.1374 122.51 14.1691 122.13 14.2009C120.393 12.7806 119.009 10.9394 116.547 11.5007C115.223 11.8038 114.357 12.7764 114.059 14.0244C113.088 18.0778 116.844 20.0572 119.846 21.4311C119.846 20.2578 119.846 18.9499 119.846 17.7766C119.467 17.6754 118.849 17.7636 118.47 17.6625C118.454 17.9754 118.461 18.1273 118.419 18.3867C118.094 18.3432 117.822 18.3785 117.484 18.3621C117.484 17.8749 117.484 17.1617 117.484 16.6746C119.667 16.6746 121.85 16.6746 124.032 16.6746C124.013 17.0688 124.02 17.1035 123.987 17.5371C123.872 17.6348 123.802 17.5188 123.473 17.6965C123.266 17.8078 122.744 17.6929 122.7 17.7542C122.7 19.3717 122.7 21.5264 122.7 23.1439C126.602 26.8108 127.366 34.3611 121.817 37.14C119.226 38.4375 115.393 38.3492 112.711 36.6534C111.789 36.0709 111.161 35.2048 110.774 34.2298C109.489 30.9936 110.509 26.6478 114.401 26.0583C116.575 25.7287 118.815 26.8421 118.705 29.7086C118.677 30.4241 118.521 30.9231 118.295 31.2708C117.707 32.1734 115.631 32.4905 114.934 31.5498C114.613 31.1178 114.669 30.487 115.177 29.8933C115.645 29.3474 115.801 28.8896 115.759 28.5536C115.505 26.5461 110.976 29.4615 112.733 32.8341C113.254 33.8356 114.141 34.6964 115.215 35.0883C118.473 36.2775 123.425 35.4085 122.986 30.8502C122.771 28.6248 120.996 26.0847 118.514 24.6661C116.41 23.4635 114.376 22.3601 112.984 20.8945C108.072 15.7202 113.783 5.5704 121.083 10.6806C121.153 10.5805 121.223 10.4353 121.293 10.2728C121.445 9.92095 121.597 9.48843 121.749 9.27143Z" fill="#281671"/>
</svg>
