<svg width="62" height="62" viewBox="0 0 62 62" fill="none" xmlns="http://www.w3.org/2000/svg">
<path d="M4 58L16 54.7C20.3 57.4 25.5 59 31 59C46.5 59 59 46.5 59 31C59 15.5 46.5 3 31 3C15.5 3 3 15.5 3 31C3 36.5 4.6 41.7 7.3 46L4 58Z" fill="#25D366" stroke="white" stroke-width="5" stroke-miterlimit="10"/>
<path d="M44.9001 38.6C43.0001 42.6 39.5001 43.1 39.5001 43.1C36.5001 43.7 32.7001 42.4 29.7001 41C25.4001 39 21.7001 35.8 19.2001 31.7C18.1001 29.8 17.1001 27.6 17.0001 25.5C17.0001 25.5 16.6001 22 20.0001 19.2C20.3001 19 20.6001 18.9 21.0001 18.9H22.5001C23.1001 18.9 23.7001 19.3 23.9001 19.9L26.2001 25.5C26.4001 26.1 26.3001 26.7 25.9001 27.2L24.4001 28.8C23.9001 29.3 23.9001 30 24.2001 30.6C24.3001 30.8 24.5001 31.1 24.8001 31.4C26.6001 33.8 29.0001 35.6 31.7001 36.8C32.1001 37 32.4001 37.1 32.7001 37.2C33.4001 37.4 34.0001 37.1 34.4001 36.6L35.6001 34.8C35.9001 34.3 36.5001 34 37.1001 34.1L43.1001 35C43.7001 35.1 44.2001 35.6 44.4001 36.2L44.8001 37.7C45.0001 37.9 45.0001 38.3 44.9001 38.6Z" fill="white"/>
</svg>
